<?xml version="1.0" standalone="no"?>
<!DOCTYPE svg PUBLIC "-//W3C//DTD SVG 20010904//EN"
 "http://www.w3.org/TR/2001/REC-SVG-20010904/DTD/svg10.dtd">
<svg version="1.0" xmlns="http://www.w3.org/2000/svg"
 width="1200.000000pt" height="900.000000pt" viewBox="0 0 1200.000000 900.000000"
 preserveAspectRatio="xMidYMid meet">

<g transform="translate(0.000000,900.000000) scale(0.100000,-0.100000)"
fill="#ffffff" stroke="none">
<path d="M9012 6608 c-19 -10 -296 -319 -360 -402 -75 -97 47 -234 151 -168
35 22 344 377 364 418 33 68 -16 152 -93 160 -22 2 -49 -1 -62 -8z"/>
<path d="M6710 6513 c-599 -33 -1148 -283 -1560 -709 -175 -181 -340 -415
-340 -482 0 -68 47 -116 114 -116 50 0 80 25 148 127 223 333 492 568 843 737
299 144 588 210 924 210 850 0 1630 -526 1948 -1315 106 -264 143 -441 150
-725 6 -215 -7 -323 -68 -571 -38 -159 -38 -182 5 -225 29 -29 41 -34 80 -34
36 0 52 6 76 28 27 23 35 46 65 165 61 249 79 380 79 587 0 207 -17 345 -63
536 -100 407 -296 762 -586 1063 -203 211 -412 364 -660 486 -289 141 -552
211 -880 235 -136 10 -157 10 -275 3z"/>
<path d="M9560 5991 c-19 -10 -123 -70 -230 -134 -217 -127 -245 -154 -237
-220 9 -64 72 -114 130 -103 17 4 132 65 255 138 233 137 262 161 262 221 0
92 -95 144 -180 98z"/>
<path d="M9635 5220 c-105 -15 -200 -32 -210 -38 -86 -45 -84 -167 3 -208 32
-15 47 -14 260 15 125 18 241 39 259 48 68 33 80 128 23 185 -25 25 -35 28
-87 27 -32 -1 -144 -14 -248 -29z"/>
<path d="M4668 4790 c-349 -59 -587 -367 -565 -730 11 -184 76 -329 202 -456
93 -94 197 -152 321 -180 106 -23 310 -16 409 16 115 36 221 97 298 171 l70
67 -94 79 c-52 43 -102 84 -112 92 -15 12 -23 9 -66 -32 -219 -205 -583 -131
-674 137 l-16 46 499 0 498 0 7 39 c9 56 -13 233 -39 317 -33 104 -89 198
-161 269 -135 136 -364 201 -577 165z m197 -271 c135 -25 215 -103 244 -237 6
-29 11 -55 11 -57 0 -3 -151 -5 -336 -5 l-336 0 6 32 c24 123 145 243 268 267
61 12 77 12 143 0z"/>
<path d="M6258 4790 c-68 -12 -135 -36 -195 -69 l-53 -29 0 39 0 39 -170 0
-170 0 0 -670 0 -670 170 0 170 0 0 479 0 479 48 31 c83 53 126 64 247 65 102
1 114 -1 163 -27 56 -29 101 -87 124 -157 7 -23 13 -180 15 -452 l5 -418 170
0 170 0 -5 458 c-4 391 -7 467 -22 527 -49 198 -155 311 -336 361 -65 18 -266
26 -331 14z"/>
<path d="M2014 4748 c3 -13 115 -313 249 -668 l243 -645 85 -3 c82 -3 86 -2
96 21 7 14 84 197 174 408 89 211 165 387 169 392 3 4 85 -179 181 -408 l174
-415 86 0 c73 0 88 3 94 18 10 26 465 1241 481 1285 l13 37 -170 -2 -171 -3
-134 -360 c-74 -198 -139 -371 -145 -385 -10 -23 -26 13 -166 363 l-155 387
-87 0 -86 0 -154 -386 c-139 -350 -155 -384 -166 -363 -6 13 -72 187 -145 387
l-133 362 -170 0 -169 0 6 -22z"/>
<path d="M7203 4323 c6 -471 9 -509 56 -633 44 -117 141 -207 268 -250 52 -17
99 -24 199 -28 181 -6 236 6 417 96 4 2 7 -15 7 -37 l0 -41 170 0 170 0 0 670
0 670 -170 0 -170 0 -2 -477 -3 -477 -40 -27 c-104 -72 -297 -96 -400 -50 -63
28 -90 53 -123 116 l-27 50 -3 433 -3 432 -176 0 -175 0 5 -447z"/>
<path d="M7900 2795 l0 -415 75 0 75 0 0 69 0 68 61 53 c34 29 64 49 67 43 4
-5 38 -60 77 -121 l70 -112 83 0 c80 0 82 1 72 20 -6 11 -47 80 -92 153 -44
72 -89 146 -99 163 l-18 30 107 115 107 114 -85 3 -84 3 -126 -126 c-69 -69
-129 -125 -133 -125 -4 0 -7 108 -7 240 l0 240 -75 0 -75 0 0 -415z"/>
<path d="M6843 2972 c-138 -49 -215 -154 -215 -294 0 -88 33 -159 103 -222 63
-57 131 -81 230 -81 333 1 439 436 142 581 -73 36 -184 43 -260 16z m152 -123
c134 -37 179 -185 87 -282 -39 -41 -74 -57 -127 -57 -86 0 -154 51 -176 133
-13 51 -1 102 37 147 34 40 64 55 134 69 3 0 23 -4 45 -10z"/>
<path d="M7667 2976 c-41 -15 -64 -30 -89 -61 -17 -20 -18 -19 -18 23 l0 42
-75 0 -75 0 0 -300 0 -300 75 0 75 0 0 168 c0 139 3 173 18 201 29 58 63 76
143 76 l70 0 -3 80 -3 80 -40 2 c-22 2 -57 -4 -78 -11z"/>
<path d="M5672 2968 c3 -7 54 -142 113 -300 l108 -288 36 0 37 0 78 185 c43
102 80 185 81 185 2 0 38 -83 81 -185 l78 -185 37 0 c31 0 38 4 47 28 22 56
212 565 212 569 0 1 -33 3 -74 3 l-74 0 -63 -171 c-45 -124 -66 -168 -72 -157
-5 8 -37 84 -71 169 l-62 154 -39 0 -39 0 -62 -154 c-34 -85 -66 -161 -71
-169 -6 -11 -27 33 -72 157 l-63 171 -75 0 c-56 0 -74 -3 -71 -12z"/>
</g>
</svg>
